<?xml version="1.0" encoding="utf-8"?>
<!-- Generator: Adobe Illustrator 27.0.0, SVG Export Plug-In . SVG Version: 6.00 Build 0)  -->
<svg version="1.1" id="Layer_1" xmlns="http://www.w3.org/2000/svg" xmlns:xlink="http://www.w3.org/1999/xlink" x="0px" y="0px"
	 width="18px" viewBox="0 0 482.2 482.99" style="enable-background:new 0 0 482.2 482.99;" xml:space="preserve">
<style type="text/css">
	.st0{fill:#D34139;}
	.st1{fill:#E84C3D;}
	.st2{fill:#FFFFFF;}
	.st3{fill:none;stroke:#000000;stroke-width:11.6862;stroke-miterlimit:10;}
</style>
<g>
	<g>
		<path class="st0" d="M449.33,257.21c-4.19,1.08-5.55,3.11-5.68,7.3c-0.81,24.61-6.09,48.55-15.69,71.14
			c-2.84,6.9-3.79,13.25-1.62,20.15c3.38,10.82,1.49,20.56-4.87,29.75c-8.79,12.58-16.36,26.1-26.24,37.73
			c-30.29,35.7-68.57,57.07-115.91,59.37c-43.68,2.16-85.88-6.22-125.91-23.8C96.89,433.97,50.63,396.64,23.04,340.79
			c-39.9-80.61-25.97-156.21,26.24-226.67c4.87-6.63,10.82-12.58,16.64-19.34C43.87,87.34,0.86,82.87,0.46,72.6
			C0.05,62.32,11.68,30.26,25.61,30.94s37.46,32.73,57.34,50.04c0-26.64-7.84-68.57,0-76.68s37.19-4.06,41.11,6.49
			c4.06,10.55-13.25,35.43-20.15,53.83c2.03-0.81,2.98-1.08,3.65-1.49c79.79-45.44,160.67-41.25,240.6-1.89
			c53.02,26.1,88.18,70.6,112.93,123.48c9.33,19.88,16.64,40.44,21.1,62.89C470.7,250.85,460.02,254.37,449.33,257.21z
			 M109.06,253.28c7.98,24.21,19.2,45.44,33.95,64.78c46.79,60.59,108.87,83.85,183.93,73.98c16.91-2.16,32.05-9.74,45.17-20.69
			c33.95-28.67,47.88-67.49,56.26-110.36C320.99,280.2,215.23,277.9,109.06,253.28z"/>
	</g>
	<g>
		<path class="st1" d="M348.17,61.1c-20.83-10.28-41.79-18.12-62.75-23.4C171.95,73.27,89.58,179.17,89.58,304.27
			c0,52.07,14.2,100.76,39.09,142.55c7.98,4.33,16.23,8.39,24.75,12.04c40.03,17.58,82.09,25.97,125.91,23.8
			c47.34-2.3,85.61-23.67,115.91-59.37c9.87-11.63,17.45-25.16,26.24-37.73c6.36-9.2,8.25-18.93,4.87-29.75
			c-2.16-6.9-1.22-13.25,1.62-20.15c9.6-22.72,14.88-46.52,15.69-71.14c0.14-4.19,1.49-6.09,5.68-7.3
			c10.68-2.84,21.37-6.36,32.73-9.74c-4.46-22.45-11.77-43.01-21.1-62.89C436.22,131.56,401.19,87.2,348.17,61.1z"/>
	</g>
	<g>
		<g>
			<g>
				<g>
					<path class="st2" d="M372.25,371.22c-13.12,10.95-28.13,18.53-45.17,20.69c-75.06,9.87-137.27-13.39-183.93-73.98
						c-14.88-19.2-25.97-40.57-33.95-64.78c106.03,24.75,211.79,27.05,319.45,7.71C420.12,303.73,406.19,342.68,372.25,371.22z"/>
				</g>
				<g>
					<path class="st3" d="M330.18,317.39"/>
				</g>
				<g>
					<path class="st3" d="M382.93,288.85"/>
				</g>
				<g>
					<path class="st3" d="M206.16,292.64"/>
				</g>
				<g>
					<path class="st3" d="M276.09,307.11"/>
				</g>
				<g>
					<polygon class="st1" points="394.35,284.49 328.29,299.57 330.75,310.88 					"/>
				</g>
				<g>
					<g>
						<polygon class="st1" points="206.98,285.18 285.96,302.09 283.12,315.61 						"/>
					</g>
					<g>
						<path class="st1" d="M243.09,296.14c7.17,5.55,25.29,11.09,35.98,14.07c0.14,1.08,0.27,2.16,0.27,3.25
							c0,12.31-10.01,22.32-22.32,22.32c-12.31,0-22.32-10.01-22.32-22.32C234.84,306.41,238.08,300.19,243.09,296.14z"/>
					</g>
				</g>
				<g>
					<path class="st1" d="M369.43,291.21c-6.88,5.41-24.59,10.82-34.92,13.77c-0.16,0.98-0.16,2.13-0.16,3.11
						c0,11.97,9.67,21.64,21.64,21.64c11.97,0,21.64-9.67,21.64-21.64C377.47,301.21,374.35,295.14,369.43,291.21z"/>
				</g>
				<g>
					<circle class="st2" cx="261.21" cy="318.72" r="7.84"/>
				</g>
				<g>
					<path class="st2" d="M355.07,305.76c2.99,0,5.41,2.42,5.41,5.41s-2.42,5.41-5.41,5.41s-5.41-2.42-5.41-5.41
						S352.08,305.76,355.07,305.76z"/>
				</g>
			</g>
		</g>
	</g>
</g>
</svg>
